<mxfile host="app.diagrams.net" modified="2024-04-29T02:03:01.332Z" agent="Mozilla/5.0 (Windows NT 10.0; Win64; x64) AppleWebKit/537.36 (KHTML, like Gecko) Chrome/124.0.0.0 Safari/537.36" etag="fKBSOwDpAhhIzT-f0Czg" version="22.1.18" type="device">
  <diagram name="Page-1" id="tg7io1Izg-0qvBAYzOr0">
    <mxGraphModel dx="857" dy="464" grid="1" gridSize="10" guides="1" tooltips="1" connect="1" arrows="1" fold="1" page="1" pageScale="1" pageWidth="850" pageHeight="1100" math="0" shadow="0">
      <root>
        <mxCell id="0" />
        <mxCell id="1" parent="0" />
        <mxCell id="e0Jf-Ft4pZN4UZBpegHs-1" value="Actor" style="shape=umlActor;verticalLabelPosition=bottom;verticalAlign=top;html=1;outlineConnect=0;" vertex="1" parent="1">
          <mxGeometry x="300" y="150" width="30" height="60" as="geometry" />
        </mxCell>
        <mxCell id="e0Jf-Ft4pZN4UZBpegHs-3" value="" style="rounded=0;whiteSpace=wrap;html=1;fillColor=none;" vertex="1" parent="1">
          <mxGeometry x="380" y="40" width="260" height="280" as="geometry" />
        </mxCell>
        <mxCell id="e0Jf-Ft4pZN4UZBpegHs-7" value="browse buku" style="ellipse;whiteSpace=wrap;html=1;" vertex="1" parent="1">
          <mxGeometry x="440" y="70" width="60" height="40" as="geometry" />
        </mxCell>
        <mxCell id="e0Jf-Ft4pZN4UZBpegHs-8" value="checkout buku" style="ellipse;whiteSpace=wrap;html=1;" vertex="1" parent="1">
          <mxGeometry x="440" y="120" width="80" height="40" as="geometry" />
        </mxCell>
        <mxCell id="e0Jf-Ft4pZN4UZBpegHs-10" value="pembalikan buku" style="ellipse;whiteSpace=wrap;html=1;" vertex="1" parent="1">
          <mxGeometry x="410" y="170" width="70" height="50" as="geometry" />
        </mxCell>
        <mxCell id="e0Jf-Ft4pZN4UZBpegHs-12" value="update katalog" style="ellipse;whiteSpace=wrap;html=1;" vertex="1" parent="1">
          <mxGeometry x="440" y="230" width="115" height="70" as="geometry" />
        </mxCell>
        <mxCell id="e0Jf-Ft4pZN4UZBpegHs-14" value="Pengadaan" style="shape=umlActor;verticalLabelPosition=bottom;verticalAlign=top;html=1;outlineConnect=0;" vertex="1" parent="1">
          <mxGeometry x="680" y="100" width="30" height="60" as="geometry" />
        </mxCell>
        <mxCell id="e0Jf-Ft4pZN4UZBpegHs-19" value="admin" style="shape=umlActor;verticalLabelPosition=bottom;verticalAlign=top;html=1;outlineConnect=0;" vertex="1" parent="1">
          <mxGeometry x="680" y="210" width="30" height="60" as="geometry" />
        </mxCell>
        <mxCell id="e0Jf-Ft4pZN4UZBpegHs-22" value="" style="endArrow=classic;html=1;rounded=0;exitX=1.036;exitY=0.605;exitDx=0;exitDy=0;exitPerimeter=0;entryX=0;entryY=0.3333333333333333;entryDx=0;entryDy=0;entryPerimeter=0;" edge="1" parent="1" source="e0Jf-Ft4pZN4UZBpegHs-10" target="e0Jf-Ft4pZN4UZBpegHs-19">
          <mxGeometry width="50" height="50" relative="1" as="geometry">
            <mxPoint x="610" y="220" as="sourcePoint" />
            <mxPoint x="660" y="170" as="targetPoint" />
          </mxGeometry>
        </mxCell>
        <mxCell id="e0Jf-Ft4pZN4UZBpegHs-23" value="" style="endArrow=classic;html=1;rounded=0;" edge="1" parent="1" source="e0Jf-Ft4pZN4UZBpegHs-10" target="e0Jf-Ft4pZN4UZBpegHs-14">
          <mxGeometry width="50" height="50" relative="1" as="geometry">
            <mxPoint x="493" y="210" as="sourcePoint" />
            <mxPoint x="690" y="240" as="targetPoint" />
          </mxGeometry>
        </mxCell>
        <mxCell id="e0Jf-Ft4pZN4UZBpegHs-24" value="" style="endArrow=classic;html=1;rounded=0;exitX=1;exitY=0.5;exitDx=0;exitDy=0;" edge="1" parent="1" source="e0Jf-Ft4pZN4UZBpegHs-8">
          <mxGeometry width="50" height="50" relative="1" as="geometry">
            <mxPoint x="488" y="197" as="sourcePoint" />
            <mxPoint x="680" y="130" as="targetPoint" />
          </mxGeometry>
        </mxCell>
        <mxCell id="e0Jf-Ft4pZN4UZBpegHs-25" value="" style="endArrow=classic;html=1;rounded=0;" edge="1" parent="1" source="e0Jf-Ft4pZN4UZBpegHs-1" target="e0Jf-Ft4pZN4UZBpegHs-7">
          <mxGeometry width="50" height="50" relative="1" as="geometry">
            <mxPoint x="530" y="150" as="sourcePoint" />
            <mxPoint x="690" y="140" as="targetPoint" />
          </mxGeometry>
        </mxCell>
        <mxCell id="e0Jf-Ft4pZN4UZBpegHs-26" value="" style="endArrow=classic;html=1;rounded=0;" edge="1" parent="1" target="e0Jf-Ft4pZN4UZBpegHs-8">
          <mxGeometry width="50" height="50" relative="1" as="geometry">
            <mxPoint x="330" y="170" as="sourcePoint" />
            <mxPoint x="457" y="113" as="targetPoint" />
          </mxGeometry>
        </mxCell>
        <mxCell id="e0Jf-Ft4pZN4UZBpegHs-27" value="" style="endArrow=classic;html=1;rounded=0;" edge="1" parent="1" target="e0Jf-Ft4pZN4UZBpegHs-10">
          <mxGeometry width="50" height="50" relative="1" as="geometry">
            <mxPoint x="330" y="170" as="sourcePoint" />
            <mxPoint x="467" y="123" as="targetPoint" />
          </mxGeometry>
        </mxCell>
        <mxCell id="e0Jf-Ft4pZN4UZBpegHs-28" value="" style="endArrow=classic;html=1;rounded=0;entryX=1;entryY=0.5;entryDx=0;entryDy=0;exitX=0;exitY=0.3333333333333333;exitDx=0;exitDy=0;exitPerimeter=0;" edge="1" parent="1" source="e0Jf-Ft4pZN4UZBpegHs-19" target="e0Jf-Ft4pZN4UZBpegHs-12">
          <mxGeometry width="50" height="50" relative="1" as="geometry">
            <mxPoint x="493" y="210" as="sourcePoint" />
            <mxPoint x="690" y="240" as="targetPoint" />
          </mxGeometry>
        </mxCell>
      </root>
    </mxGraphModel>
  </diagram>
</mxfile>
